<svg xmlns="http://www.w3.org/2000/svg" viewBox="0 0 16 16" shape-rendering="crispEdges">
  <!-- Hair (long dark, falls past shoulders) -->
  <rect x="4" y="0" width="8" height="1" fill="#1A1020"/>
  <rect x="3" y="1" width="10" height="1" fill="#1A1020"/>
  <rect x="3" y="2" width="10" height="1" fill="#1A1020"/>
  <rect x="3" y="3" width="1" height="1" fill="#1A1020"/>
  <rect x="12" y="3" width="1" height="1" fill="#1A1020"/>
  <rect x="2" y="4" width="1" height="8" fill="#1A1020"/>
  <rect x="13" y="4" width="1" height="8" fill="#1A1020"/>
  <!-- Face -->
  <rect x="4" y="3" width="8" height="1" fill="#D4A574"/>
  <rect x="3" y="4" width="10" height="1" fill="#D4A574"/>
  <rect x="3" y="5" width="10" height="1" fill="#D4A574"/>
  <rect x="3" y="6" width="10" height="1" fill="#D4A574"/>
  <rect x="4" y="7" width="8" height="1" fill="#D4A574"/>
  <rect x="4" y="8" width="8" height="1" fill="#D4A574"/>
  <rect x="5" y="9" width="6" height="1" fill="#D4A574"/>
  <!-- Eyes -->
  <rect x="5" y="5" width="1" height="1" fill="#1A1020"/>
  <rect x="10" y="5" width="1" height="1" fill="#1A1020"/>
  <!-- Blush -->
  <rect x="4" y="6" width="1" height="1" fill="#E0A0A0"/>
  <rect x="11" y="6" width="1" height="1" fill="#E0A0A0"/>
  <!-- Smile -->
  <rect x="6" y="8" width="4" height="1" fill="#C48A60"/>
  <!-- Neck -->
  <rect x="6" y="10" width="4" height="1" fill="#D4A574"/>
  <!-- Shirt (pink/magenta - FE vibes) -->
  <rect x="3" y="11" width="10" height="5" fill="#CC5B8F"/>
  <!-- Hair over shoulders -->
  <rect x="2" y="12" width="1" height="4" fill="#1A1020"/>
  <rect x="13" y="12" width="1" height="4" fill="#1A1020"/>
</svg>
