<svg xmlns="http://www.w3.org/2000/svg" viewBox="0 0 16 16" shape-rendering="crispEdges">
  <!-- Hair (curly/voluminous, black) -->
  <rect x="3" y="0" width="10" height="1" fill="#0A0A0A"/>
  <rect x="2" y="1" width="12" height="1" fill="#0A0A0A"/>
  <rect x="2" y="2" width="12" height="1" fill="#0A0A0A"/>
  <rect x="2" y="3" width="1" height="1" fill="#0A0A0A"/>
  <rect x="13" y="3" width="1" height="1" fill="#0A0A0A"/>
  <rect x="2" y="4" width="1" height="4" fill="#0A0A0A"/>
  <rect x="13" y="4" width="1" height="4" fill="#0A0A0A"/>
  <!-- Face -->
  <rect x="4" y="3" width="8" height="1" fill="#6B4226"/>
  <rect x="3" y="4" width="10" height="1" fill="#6B4226"/>
  <rect x="3" y="5" width="10" height="1" fill="#6B4226"/>
  <rect x="3" y="6" width="10" height="1" fill="#6B4226"/>
  <rect x="4" y="7" width="8" height="1" fill="#6B4226"/>
  <rect x="4" y="8" width="8" height="1" fill="#6B4226"/>
  <rect x="5" y="9" width="6" height="1" fill="#6B4226"/>
  <!-- Eyes -->
  <rect x="5" y="5" width="1" height="1" fill="#1A1020"/>
  <rect x="10" y="5" width="1" height="1" fill="#1A1020"/>
  <!-- Blush -->
  <rect x="4" y="6" width="1" height="1" fill="#7A5040"/>
  <rect x="11" y="6" width="1" height="1" fill="#7A5040"/>
  <!-- Smile -->
  <rect x="6" y="8" width="4" height="1" fill="#5A3620"/>
  <!-- Neck -->
  <rect x="6" y="10" width="4" height="1" fill="#6B4226"/>
  <!-- Shirt (teal — accessibility specialist) -->
  <rect x="3" y="11" width="10" height="5" fill="#2dd4bf"/>
</svg>
