<svg xmlns="http://www.w3.org/2000/svg" viewBox="0 0 16 16" shape-rendering="crispEdges">
  <!-- Hair (dark, slicked) -->
  <rect x="4" y="1" width="8" height="1" fill="#1A1A2E"/>
  <rect x="3" y="2" width="10" height="1" fill="#1A1A2E"/>
  <rect x="3" y="3" width="10" height="1" fill="#1A1A2E"/>
  <!-- Face -->
  <rect x="4" y="4" width="8" height="1" fill="#E8C8A0"/>
  <rect x="3" y="5" width="10" height="1" fill="#E8C8A0"/>
  <rect x="3" y="6" width="10" height="1" fill="#E8C8A0"/>
  <rect x="3" y="7" width="10" height="1" fill="#E8C8A0"/>
  <rect x="4" y="8" width="8" height="1" fill="#E8C8A0"/>
  <rect x="4" y="9" width="8" height="1" fill="#E8C8A0"/>
  <rect x="5" y="10" width="6" height="1" fill="#E8C8A0"/>
  <!-- Eyes -->
  <rect x="5" y="6" width="1" height="1" fill="#1A1A2E"/>
  <rect x="10" y="6" width="1" height="1" fill="#1A1A2E"/>
  <!-- Beard -->
  <rect x="4" y="8" width="8" height="1" fill="#2A2A3E"/>
  <rect x="5" y="9" width="6" height="1" fill="#2A2A3E"/>
  <rect x="5" y="10" width="6" height="1" fill="#2A2A3E"/>
  <!-- Neck -->
  <rect x="6" y="11" width="4" height="1" fill="#E8C8A0"/>
  <!-- Shirt (dark green - architect vibes) -->
  <rect x="2" y="12" width="12" height="4" fill="#3D6B4F"/>
  <!-- Collar -->
  <rect x="6" y="12" width="4" height="1" fill="#2D5040"/>
</svg>
