<svg xmlns="http://www.w3.org/2000/svg" viewBox="0 0 16 16" shape-rendering="crispEdges">
  <!-- Hair (short, dark) -->
  <rect x="4" y="1" width="8" height="1" fill="#2A2020"/>
  <rect x="3" y="2" width="10" height="1" fill="#2A2020"/>
  <rect x="3" y="3" width="10" height="1" fill="#2A2020"/>
  <!-- Face -->
  <rect x="4" y="4" width="8" height="1" fill="#D4B896"/>
  <rect x="3" y="5" width="10" height="1" fill="#D4B896"/>
  <rect x="3" y="6" width="10" height="1" fill="#D4B896"/>
  <rect x="3" y="7" width="10" height="1" fill="#D4B896"/>
  <rect x="4" y="8" width="8" height="1" fill="#D4B896"/>
  <rect x="4" y="9" width="8" height="1" fill="#D4B896"/>
  <rect x="5" y="10" width="6" height="1" fill="#D4B896"/>
  <!-- Glasses frames -->
  <rect x="4" y="5" width="3" height="2" fill="none" stroke="#3A3A4A" stroke-width="0.6"/>
  <rect x="9" y="5" width="3" height="2" fill="none" stroke="#3A3A4A" stroke-width="0.6"/>
  <rect x="7" y="5.5" width="2" height="0.5" fill="#3A3A4A"/>
  <!-- Eyes -->
  <rect x="5" y="6" width="1" height="1" fill="#1A1A2E"/>
  <rect x="10" y="6" width="1" height="1" fill="#1A1A2E"/>
  <!-- Slight smirk -->
  <rect x="6" y="9" width="3" height="1" fill="#B89878"/>
  <rect x="9" y="8" width="1" height="1" fill="#B89878"/>
  <!-- Neck -->
  <rect x="6" y="11" width="4" height="1" fill="#D4B896"/>
  <!-- Shirt (teal - QA vibes) -->
  <rect x="2" y="12" width="12" height="4" fill="#3A8C8C"/>
  <!-- Collar -->
  <rect x="5" y="12" width="2" height="1" fill="#E8E8F0"/>
  <rect x="9" y="12" width="2" height="1" fill="#E8E8F0"/>
</svg>
