<svg xmlns="http://www.w3.org/2000/svg" viewBox="0 0 16 16" shape-rendering="crispEdges">
  <!-- Hair (short, dark, tight) -->
  <rect x="4" y="1" width="8" height="1" fill="#0D0D15"/>
  <rect x="3" y="2" width="10" height="1" fill="#0D0D15"/>
  <rect x="3" y="3" width="10" height="1" fill="#0D0D15"/>
  <!-- Face -->
  <rect x="4" y="4" width="8" height="1" fill="#8B5E3C"/>
  <rect x="3" y="5" width="10" height="1" fill="#8B5E3C"/>
  <rect x="3" y="6" width="10" height="1" fill="#8B5E3C"/>
  <rect x="3" y="7" width="10" height="1" fill="#8B5E3C"/>
  <rect x="4" y="8" width="8" height="1" fill="#8B5E3C"/>
  <rect x="4" y="9" width="8" height="1" fill="#8B5E3C"/>
  <rect x="5" y="10" width="6" height="1" fill="#8B5E3C"/>
  <!-- Eyes -->
  <rect x="5" y="6" width="1" height="1" fill="#0D0D15"/>
  <rect x="10" y="6" width="1" height="1" fill="#0D0D15"/>
  <!-- Smile -->
  <rect x="6" y="9" width="4" height="1" fill="#734D30"/>
  <!-- Neck -->
  <rect x="6" y="11" width="4" height="1" fill="#8B5E3C"/>
  <!-- Shirt (orange - BE vibes) -->
  <rect x="2" y="12" width="12" height="4" fill="#CC7A3E"/>
  <!-- Collar -->
  <rect x="6" y="12" width="4" height="1" fill="#B36A30"/>
</svg>
