<svg xmlns="http://www.w3.org/2000/svg" viewBox="0 0 16 16" shape-rendering="crispEdges">
  <!-- Hair (short styled, dark) -->
  <rect x="5" y="0" width="6" height="1" fill="#2A1E14"/>
  <rect x="4" y="1" width="8" height="1" fill="#2A1E14"/>
  <rect x="3" y="2" width="10" height="1" fill="#2A1E14"/>
  <rect x="3" y="3" width="10" height="1" fill="#2A1E14"/>
  <rect x="12" y="3" width="1" height="1" fill="#2A1E14"/>
  <!-- Face (warm skin) -->
  <rect x="4" y="4" width="8" height="1" fill="#D8A87A"/>
  <rect x="3" y="5" width="10" height="1" fill="#D8A87A"/>
  <rect x="3" y="6" width="10" height="1" fill="#D8A87A"/>
  <rect x="3" y="7" width="10" height="1" fill="#D8A87A"/>
  <rect x="4" y="8" width="8" height="1" fill="#D8A87A"/>
  <rect x="4" y="9" width="8" height="1" fill="#D8A87A"/>
  <rect x="5" y="10" width="6" height="1" fill="#D8A87A"/>
  <!-- Eyes -->
  <rect x="5" y="6" width="1" height="1" fill="#1A1410"/>
  <rect x="10" y="6" width="1" height="1" fill="#1A1410"/>
  <!-- Eyebrows -->
  <rect x="5" y="5" width="2" height="1" fill="#2A1E14"/>
  <rect x="9" y="5" width="2" height="1" fill="#2A1E14"/>
  <!-- Grin -->
  <rect x="6" y="8" width="4" height="1" fill="#B88A62"/>
  <rect x="5" y="9" width="1" height="1" fill="#B88A62"/>
  <rect x="10" y="9" width="1" height="1" fill="#B88A62"/>
  <!-- Neck -->
  <rect x="6" y="11" width="4" height="1" fill="#D8A87A"/>
  <!-- Shirt (lime) -->
  <rect x="2" y="12" width="12" height="4" fill="#7ACC40"/>
  <!-- V-neck -->
  <rect x="7" y="12" width="2" height="2" fill="#D8A87A"/>
</svg>
