<svg xmlns="http://www.w3.org/2000/svg" viewBox="0 0 16 16" shape-rendering="crispEdges">
  <!-- Hair (short, textured) -->
  <rect x="4" y="0" width="8" height="1" fill="#3B2314"/>
  <rect x="3" y="1" width="10" height="1" fill="#3B2314"/>
  <rect x="3" y="2" width="10" height="1" fill="#3B2314"/>
  <rect x="3" y="3" width="1" height="1" fill="#3B2314"/>
  <rect x="12" y="3" width="1" height="1" fill="#3B2314"/>
  <!-- Face -->
  <rect x="4" y="3" width="8" height="1" fill="#C68642"/>
  <rect x="3" y="4" width="10" height="1" fill="#C68642"/>
  <rect x="3" y="5" width="10" height="1" fill="#C68642"/>
  <rect x="3" y="6" width="10" height="1" fill="#C68642"/>
  <rect x="4" y="7" width="8" height="1" fill="#C68642"/>
  <rect x="4" y="8" width="8" height="1" fill="#C68642"/>
  <rect x="5" y="9" width="6" height="1" fill="#C68642"/>
  <!-- Eyes -->
  <rect x="5" y="5" width="1" height="1" fill="#1A1020"/>
  <rect x="10" y="5" width="1" height="1" fill="#1A1020"/>
  <!-- Smile -->
  <rect x="6" y="8" width="4" height="1" fill="#A8703A"/>
  <!-- Neck -->
  <rect x="6" y="10" width="4" height="1" fill="#C68642"/>
  <!-- Shirt (orange - energy/animation vibes) -->
  <rect x="3" y="11" width="10" height="5" fill="#F97316"/>
</svg>
