<svg xmlns="http://www.w3.org/2000/svg" viewBox="0 0 16 16" shape-rendering="crispEdges">
  <!-- Hair (dark, pulled back) -->
  <rect x="4" y="0" width="8" height="1" fill="#1C1016"/>
  <rect x="3" y="1" width="10" height="1" fill="#1C1016"/>
  <rect x="3" y="2" width="10" height="1" fill="#1C1016"/>
  <rect x="3" y="3" width="2" height="1" fill="#1C1016"/>
  <rect x="11" y="3" width="2" height="1" fill="#1C1016"/>
  <!-- Bun -->
  <rect x="9" y="0" width="3" height="1" fill="#1C1016"/>
  <rect x="10" y="1" width="3" height="2" fill="#1C1016"/>
  <!-- Face (fair skin) -->
  <rect x="5" y="3" width="6" height="1" fill="#F5D5C0"/>
  <rect x="4" y="4" width="8" height="1" fill="#F5D5C0"/>
  <rect x="3" y="5" width="10" height="1" fill="#F5D5C0"/>
  <rect x="3" y="6" width="10" height="1" fill="#F5D5C0"/>
  <rect x="3" y="7" width="10" height="1" fill="#F5D5C0"/>
  <rect x="4" y="8" width="8" height="1" fill="#F5D5C0"/>
  <rect x="4" y="9" width="8" height="1" fill="#F5D5C0"/>
  <rect x="5" y="10" width="6" height="1" fill="#F5D5C0"/>
  <!-- Eyes -->
  <rect x="5" y="6" width="1" height="1" fill="#2A1A2E"/>
  <rect x="10" y="6" width="1" height="1" fill="#2A1A2E"/>
  <!-- Glasses frames -->
  <rect x="4" y="5" width="3" height="2" fill="none" stroke="#6A5060" stroke-width="0.6"/>
  <rect x="9" y="5" width="3" height="2" fill="none" stroke="#6A5060" stroke-width="0.6"/>
  <rect x="7" y="5.5" width="2" height="0.5" fill="#6A5060"/>
  <!-- Smile -->
  <rect x="6" y="9" width="4" height="1" fill="#D4A898"/>
  <!-- Neck -->
  <rect x="6" y="11" width="4" height="1" fill="#F5D5C0"/>
  <!-- Shirt (mauve) -->
  <rect x="2" y="12" width="12" height="4" fill="#A06080"/>
  <!-- Collar -->
  <rect x="5" y="12" width="2" height="1" fill="#F0E8F0"/>
  <rect x="9" y="12" width="2" height="1" fill="#F0E8F0"/>
</svg>
