<svg xmlns="http://www.w3.org/2000/svg" viewBox="0 0 16 16" shape-rendering="crispEdges">
  <!-- Hair (wavy, dark brown) -->
  <rect x="4" y="0" width="8" height="1" fill="#1C1008"/>
  <rect x="3" y="1" width="10" height="1" fill="#1C1008"/>
  <rect x="3" y="2" width="10" height="1" fill="#1C1008"/>
  <rect x="3" y="3" width="2" height="1" fill="#1C1008"/>
  <rect x="11" y="3" width="2" height="1" fill="#1C1008"/>
  <rect x="13" y="2" width="1" height="2" fill="#1C1008"/>
  <!-- Face (brown skin) -->
  <rect x="4" y="3" width="8" height="1" fill="#C68642"/>
  <rect x="3" y="4" width="10" height="1" fill="#C68642"/>
  <rect x="3" y="5" width="10" height="1" fill="#C68642"/>
  <rect x="3" y="6" width="10" height="1" fill="#C68642"/>
  <rect x="3" y="7" width="10" height="1" fill="#C68642"/>
  <rect x="4" y="8" width="8" height="1" fill="#C68642"/>
  <rect x="4" y="9" width="8" height="1" fill="#C68642"/>
  <rect x="5" y="10" width="6" height="1" fill="#C68642"/>
  <!-- Eyes (bright, curious) -->
  <rect x="5" y="6" width="1" height="1" fill="#0D0804"/>
  <rect x="10" y="6" width="1" height="1" fill="#0D0804"/>
  <!-- Eyebrows (expressive, slightly raised) -->
  <rect x="4" y="5" width="3" height="1" fill="#1C1008"/>
  <rect x="9" y="5" width="3" height="1" fill="#1C1008"/>
  <!-- Wide grin -->
  <rect x="6" y="9" width="4" height="1" fill="#A06830"/>
  <!-- Beard (short, trimmed) -->
  <rect x="4" y="8" width="1" height="2" fill="#1C1008"/>
  <rect x="11" y="8" width="1" height="2" fill="#1C1008"/>
  <rect x="5" y="10" width="6" height="1" fill="#1C1008"/>
  <!-- Neck -->
  <rect x="6" y="11" width="4" height="1" fill="#C68642"/>
  <!-- Shirt (deep purple — creative energy) -->
  <rect x="2" y="12" width="12" height="4" fill="#6B21A8"/>
  <!-- Collar -->
  <rect x="6" y="12" width="1" height="1" fill="#C68642"/>
  <rect x="9" y="12" width="1" height="1" fill="#C68642"/>
  <rect x="7" y="12" width="2" height="1" fill="#C68642"/>
</svg>
