<svg xmlns="http://www.w3.org/2000/svg" viewBox="0 0 16 16" shape-rendering="crispEdges">
  <!-- Hair (messy auburn/red, creative) -->
  <rect x="3" y="0" width="2" height="1" fill="#B34D22"/>
  <rect x="4" y="1" width="9" height="1" fill="#B34D22"/>
  <rect x="3" y="2" width="11" height="1" fill="#B34D22"/>
  <rect x="3" y="3" width="10" height="1" fill="#B34D22"/>
  <!-- Face -->
  <rect x="4" y="4" width="8" height="1" fill="#F0C8A0"/>
  <rect x="3" y="5" width="10" height="1" fill="#F0C8A0"/>
  <rect x="3" y="6" width="10" height="1" fill="#F0C8A0"/>
  <rect x="3" y="7" width="10" height="1" fill="#F0C8A0"/>
  <rect x="4" y="8" width="8" height="1" fill="#F0C8A0"/>
  <rect x="4" y="9" width="8" height="1" fill="#F0C8A0"/>
  <rect x="5" y="10" width="6" height="1" fill="#F0C8A0"/>
  <!-- Eyes -->
  <rect x="5" y="6" width="1" height="1" fill="#2D1B00"/>
  <rect x="10" y="6" width="1" height="1" fill="#2D1B00"/>
  <!-- Eyebrows (expressive) -->
  <rect x="5" y="5" width="2" height="1" fill="#8C3A15"/>
  <rect x="9" y="5" width="2" height="1" fill="#8C3A15"/>
  <!-- Smile -->
  <rect x="6" y="9" width="4" height="1" fill="#D4956A"/>
  <!-- Neck -->
  <rect x="6" y="11" width="4" height="1" fill="#F0C8A0"/>
  <!-- Shirt (purple - designer vibes) -->
  <rect x="2" y="12" width="12" height="4" fill="#7C5BBF"/>
  <!-- V-neck -->
  <rect x="7" y="12" width="2" height="2" fill="#F0C8A0"/>
</svg>
