<svg xmlns="http://www.w3.org/2000/svg" viewBox="0 0 16 16" shape-rendering="crispEdges">
  <!-- Hair (medium length, reddish brown) -->
  <rect x="4" y="0" width="8" height="1" fill="#8B4513"/>
  <rect x="3" y="1" width="10" height="1" fill="#8B4513"/>
  <rect x="3" y="2" width="10" height="1" fill="#8B4513"/>
  <rect x="2" y="3" width="11" height="1" fill="#8B4513"/>
  <!-- Face -->
  <rect x="4" y="4" width="8" height="1" fill="#E8C8A0"/>
  <rect x="3" y="5" width="10" height="1" fill="#E8C8A0"/>
  <rect x="3" y="6" width="10" height="1" fill="#E8C8A0"/>
  <rect x="3" y="7" width="10" height="1" fill="#E8C8A0"/>
  <rect x="4" y="8" width="8" height="1" fill="#E8C8A0"/>
  <rect x="4" y="9" width="8" height="1" fill="#E8C8A0"/>
  <rect x="5" y="10" width="6" height="1" fill="#E8C8A0"/>
  <!-- Eyes -->
  <rect x="5" y="6" width="1" height="1" fill="#1A1A2E"/>
  <rect x="10" y="6" width="1" height="1" fill="#1A1A2E"/>
  <!-- Smile -->
  <rect x="6" y="9" width="4" height="1" fill="#CCA880"/>
  <!-- Neck -->
  <rect x="6" y="11" width="4" height="1" fill="#E8C8A0"/>
  <!-- Shirt (warm orange - matches Jonah's palette as his counterpart) -->
  <rect x="2" y="12" width="12" height="4" fill="#D97706"/>
  <!-- Collar -->
  <rect x="6" y="12" width="4" height="1" fill="#B45309"/>
</svg>
