<svg xmlns="http://www.w3.org/2000/svg" viewBox="0 0 16 16" shape-rendering="crispEdges">
  <!-- Hair (short, dark brown, styled) -->
  <rect x="4" y="1" width="8" height="1" fill="#3D2B1F"/>
  <rect x="3" y="2" width="10" height="1" fill="#3D2B1F"/>
  <rect x="3" y="3" width="10" height="1" fill="#3D2B1F"/>
  <rect x="3" y="4" width="1" height="1" fill="#3D2B1F"/>
  <rect x="12" y="4" width="1" height="1" fill="#3D2B1F"/>
  <!-- Face (light skin) -->
  <rect x="4" y="4" width="8" height="1" fill="#F0D0B0"/>
  <rect x="3" y="5" width="10" height="1" fill="#F0D0B0"/>
  <rect x="3" y="6" width="10" height="1" fill="#F0D0B0"/>
  <rect x="3" y="7" width="10" height="1" fill="#F0D0B0"/>
  <rect x="4" y="8" width="8" height="1" fill="#F0D0B0"/>
  <rect x="4" y="9" width="8" height="1" fill="#F0D0B0"/>
  <rect x="5" y="10" width="6" height="1" fill="#F0D0B0"/>
  <!-- Eyes -->
  <rect x="5" y="6" width="1" height="1" fill="#2A1A10"/>
  <rect x="10" y="6" width="1" height="1" fill="#2A1A10"/>
  <!-- Eyebrows -->
  <rect x="5" y="5" width="2" height="1" fill="#3D2B1F"/>
  <rect x="9" y="5" width="2" height="1" fill="#3D2B1F"/>
  <!-- Smile -->
  <rect x="6" y="9" width="4" height="1" fill="#D4A88A"/>
  <!-- Neck -->
  <rect x="6" y="11" width="4" height="1" fill="#F0D0B0"/>
  <!-- Shirt (amber) -->
  <rect x="2" y="12" width="12" height="4" fill="#C49B30"/>
  <!-- Collar -->
  <rect x="6" y="12" width="4" height="1" fill="#E8E0D0"/>
</svg>
