<svg xmlns="http://www.w3.org/2000/svg" viewBox="0 0 16 16" shape-rendering="crispEdges">
  <!-- Hair (straight black, neat) -->
  <rect x="4" y="1" width="8" height="1" fill="#0A0A12"/>
  <rect x="3" y="2" width="10" height="1" fill="#0A0A12"/>
  <rect x="3" y="3" width="10" height="1" fill="#0A0A12"/>
  <rect x="3" y="4" width="1" height="2" fill="#0A0A12"/>
  <rect x="12" y="4" width="1" height="2" fill="#0A0A12"/>
  <!-- Face (light skin) -->
  <rect x="4" y="4" width="8" height="1" fill="#F5E0C8"/>
  <rect x="3" y="5" width="10" height="1" fill="#F5E0C8"/>
  <rect x="3" y="6" width="10" height="1" fill="#F5E0C8"/>
  <rect x="3" y="7" width="10" height="1" fill="#F5E0C8"/>
  <rect x="4" y="8" width="8" height="1" fill="#F5E0C8"/>
  <rect x="4" y="9" width="8" height="1" fill="#F5E0C8"/>
  <rect x="5" y="10" width="6" height="1" fill="#F5E0C8"/>
  <!-- Eyes -->
  <rect x="5" y="6" width="1" height="1" fill="#0A0A12"/>
  <rect x="10" y="6" width="1" height="1" fill="#0A0A12"/>
  <!-- Eyebrows -->
  <rect x="5" y="5" width="2" height="1" fill="#0A0A12"/>
  <rect x="9" y="5" width="2" height="1" fill="#0A0A12"/>
  <!-- Smile -->
  <rect x="6" y="9" width="4" height="1" fill="#D4B8A0"/>
  <!-- Neck -->
  <rect x="6" y="11" width="4" height="1" fill="#F5E0C8"/>
  <!-- Shirt (steel blue) -->
  <rect x="2" y="12" width="12" height="4" fill="#4A8CC0"/>
  <!-- Collar -->
  <rect x="5" y="12" width="2" height="1" fill="#E8E8F0"/>
  <rect x="9" y="12" width="2" height="1" fill="#E8E8F0"/>
</svg>
