<svg xmlns="http://www.w3.org/2000/svg" viewBox="0 0 16 16" shape-rendering="crispEdges">
  <!-- Hair (dark curly, voluminous) -->
  <rect x="3" y="0" width="10" height="1" fill="#1A1020"/>
  <rect x="2" y="1" width="12" height="1" fill="#1A1020"/>
  <rect x="2" y="2" width="12" height="1" fill="#1A1020"/>
  <rect x="2" y="3" width="2" height="1" fill="#1A1020"/>
  <rect x="12" y="3" width="2" height="1" fill="#1A1020"/>
  <rect x="2" y="4" width="1" height="1" fill="#1A1020"/>
  <rect x="13" y="4" width="1" height="1" fill="#1A1020"/>
  <!-- Hair sides (falls beside face) -->
  <rect x="2" y="5" width="1" height="7" fill="#1A1020"/>
  <rect x="13" y="5" width="1" height="7" fill="#1A1020"/>
  <!-- Face -->
  <rect x="4" y="3" width="8" height="1" fill="#8D5524"/>
  <rect x="3" y="4" width="10" height="1" fill="#8D5524"/>
  <rect x="3" y="5" width="10" height="1" fill="#8D5524"/>
  <rect x="3" y="6" width="10" height="1" fill="#8D5524"/>
  <rect x="4" y="7" width="8" height="1" fill="#8D5524"/>
  <rect x="4" y="8" width="8" height="1" fill="#8D5524"/>
  <rect x="5" y="9" width="6" height="1" fill="#8D5524"/>
  <!-- Eyes -->
  <rect x="5" y="5" width="1" height="1" fill="#1A1020"/>
  <rect x="10" y="5" width="1" height="1" fill="#1A1020"/>
  <!-- Smile -->
  <rect x="6" y="8" width="4" height="1" fill="#7A4A1E"/>
  <!-- Neck -->
  <rect x="6" y="10" width="4" height="1" fill="#8D5524"/>
  <!-- Shirt (teal - mobile dev vibes) -->
  <rect x="3" y="11" width="10" height="5" fill="#0EA5E9"/>
</svg>
